<svg t="1703576597746" class="icon" viewBox="0 0 1024 1024" version="1.1" xmlns="http://www.w3.org/2000/svg" p-id="7184" width="128" height="128"><path d="M374.153 477.453H167.384C110.32 477.453 64 431.143 64 374.09V167.363C64 110.31 110.32 64 167.384 64h206.77c57.065 0 103.384 46.31 103.384 103.363V374.09c0 57.053-46.32 103.363-103.385 103.363zM167.384 132.909c-18.898 0-34.461 15.56-34.461 34.454V374.09c0 18.894 15.563 34.454 34.461 34.454h206.77c18.898 0 34.461-15.56 34.461-34.454V167.363c0-18.894-15.563-34.454-34.462-34.454H167.384zM374.154 960h-206.77C110.32 960 64 913.69 64 856.637V649.725c0-57.054 46.32-103.363 103.384-103.363h206.77c57.065 0 103.384 46.31 103.384 103.363v206.727c0 57.053-46.32 103.548-103.385 103.548z m-206.77-344.73c-18.898 0-34.461 15.375-34.461 34.455v206.727c0 19.08 15.563 34.454 34.461 34.454h206.77c18.898 0 34.461-15.375 34.461-34.454V649.725c0-19.08-15.563-34.454-34.462-34.454H167.384zM856.8 960H649.845c-57.065 0-103.384-46.31-103.384-103.363v-68.91c0-57.053 46.32-103.362 103.384-103.362h206.77c57.065 0 103.384 46.31 103.384 103.363v68.909C960.184 913.505 913.68 960 856.8 960zM649.845 753.274c-19.083 0-34.461 15.374-34.461 34.454v68.909c0 19.08 15.378 34.454 34.461 34.454h206.77c19.083 0 34.46-15.375 34.46-34.454v-68.91c0-19.079-15.377-34.453-34.46-34.453h-206.77zM856.8 615.27H649.845c-57.065 0-103.384-46.31-103.384-103.364V167.363C546.46 110.31 592.78 64 649.845 64h206.77c57.065 0 103.384 46.31 103.384 103.363v344.544c0.185 57.054-46.32 103.364-103.2 103.364zM649.845 132.909c-19.083 0-34.461 15.56-34.461 34.454v344.544c0 18.895 15.378 34.455 34.461 34.455h206.77c19.083 0 34.46-15.56 34.46-34.455V167.363c0-18.894-15.377-34.454-34.46-34.454h-206.77z" fill="#000000" opacity=".85" p-id="7185"></path></svg>
