<svg t="1697044832005" class="icon" viewBox="0 0 1024 1024" version="1.1" xmlns="http://www.w3.org/2000/svg" p-id="6329" width="16" height="16"><path d="M828.946653 584.061539l169.221619 107.035073a19.193378 19.193378 0 0 1 0 32.436809l-465.503401 294.298467a38.130845 38.130845 0 0 1-41.329742 0L25.76775 723.597399a19.193378 19.193378 0 0 1 0-32.436809l169.221619-107.035073a63.977928 63.977928 0 0 1 68.328426 0l227.953356 144.142271c12.795586 8.125197 28.470178 8.125197 41.329742 0l227.953356-144.142271a63.977928 63.977928 0 0 1 68.328426 0z" fill="#365EDF" p-id="6330"></path><path d="M491.335129 6.40483L17.258686 306.205399a12.795586 12.795586 0 0 0 0 21.62454l474.076443 299.736591c12.795586 8.125197 28.470178 8.125197 41.329742 0l474.076443-299.736591a12.795586 12.795586 0 0 0 0-21.62454L532.664871 6.40483a38.130845 38.130845 0 0 0-41.329742 0z" fill="#00B4FF" p-id="6331"></path></svg>
