<svg t="1761845188531" class="icon" viewBox="0 0 1024 1024" version="1.1" xmlns="http://www.w3.org/2000/svg" p-id="1071" width="180" height="180">
<path d="M508.5184 878.08H265.7792a100.8128 100.8128 0 0 1-100.7104-100.6592V243.7632a100.8128 100.8128 0 0 1 100.7104-100.7104h310.1696a100.2496 100.2496 0 0 1 71.2192 29.4912l135.5776 135.6288a99.84 99.84 0 0 1 29.4912 71.168v131.2256a30.72 30.72 0 1 0 61.44 0V379.3408a161.024 161.024 0 0 0-47.4624-114.6368l-135.6288-135.5776a161.0752 161.0752 0 0 0-114.6368-47.5136H265.7792a162.3552 162.3552 0 0 0-162.1504 162.1504v533.6576a162.304 162.304 0 0 0 162.1504 162.0992h242.7392a30.72 30.72 0 0 0 0-61.44z" p-id="1072"></path>
<path d="M686.592 339.0976a30.72 30.72 0 0 0-30.72-30.72H321.4336a30.72 30.72 0 1 0 0 61.44h334.4384a30.72 30.72 0 0 0 30.72-30.72zM476.8768 510.5664a30.72 30.72 0 0 0-30.72-30.72H321.4336a30.72 30.72 0 0 0 0 61.44h124.7232a30.72 30.72 0 0 0 30.72-30.72zM321.4336 651.3664a30.72 30.72 0 0 0 0 61.44h85.0432a30.72 30.72 0 1 0 0-61.44zM911.9232 711.168h-23.552a168.448 168.448 0 0 0-27.136-65.3312l16.6912-16.7424a30.72 30.72 0 1 0-43.4688-43.4176l-16.6912 16.6912a168.448 168.448 0 0 0-65.3312-27.136v-23.552a30.72 30.72 0 0 0-61.44 0v23.552a168.96 168.96 0 0 0-65.3824 27.136l-16.6912-16.6912a30.72 30.72 0 1 0-43.4688 43.4176l16.6912 16.7424a167.5776 167.5776 0 0 0-27.0848 65.3312h-23.6032a30.72 30.72 0 1 0 0 61.44h23.6032a168.1408 168.1408 0 0 0 27.0848 65.3824l-16.6912 16.6912a30.72 30.72 0 1 0 43.4688 43.4688l16.6912-16.6912a168.1408 168.1408 0 0 0 65.5872 27.0848v23.6032a30.72 30.72 0 0 0 61.44 0v-23.6032a167.5776 167.5776 0 0 0 65.3312-27.0848l16.6912 16.6912a30.72 30.72 0 1 0 43.4688-43.4688l-16.6912-16.6912a168.96 168.96 0 0 0 27.136-65.3824h23.552a30.72 30.72 0 0 0 0-61.44zM721.92 849.92a108.0832 108.0832 0 1 1 108.032-108.0832A108.1856 108.1856 0 0 1 721.92 849.92z" p-id="1073"></path>
</svg>
